<?xml version="1.0" standalone="no"?>
<!DOCTYPE svg PUBLIC "-//W3C//DTD SVG 20010904//EN"
 "http://www.w3.org/TR/2001/REC-SVG-20010904/DTD/svg10.dtd">
<svg version="1.0" xmlns="http://www.w3.org/2000/svg"
 width="400.000000pt" height="500.000000pt" viewBox="0 0 400.000000 144.000000"
 preserveAspectRatio="xMidYMid meet" fill= "currentColor" >
<g transform="translate(0.000000,144.000000) scale(0.100000,-0.100000)"
fill="#121212" stroke="none">
<path d="M0 720 l0 -720 2000 0 2000 0 0 720 0 720 -2000 0 -2000 0 0 -720z
m3880 510 l0 -40 -1880 0 -1880 0 0 40 0 40 1880 0 1880 0 0 -40z m-3472 -157
c3 -23 2 -23 -107 -23 l-111 0 0 -145 0 -145 111 0 c109 0 110 0 107 -22 -3
-22 -7 -23 -117 -26 -112 -3 -115 -2 -143 25 l-28 27 0 135 0 135 32 33 33 34
110 -3 c105 -3 110 -4 113 -25z m1862 -105 c28 -73 55 -136 59 -141 4 -4 27
56 51 133 l43 140 54 0 53 0 0 -195 0 -195 -35 0 -35 0 -1 143 -1 142 -44
-137 -45 -138 -33 0 -33 0 -54 138 -54 137 -3 -142 -3 -143 -29 0 -30 0 0 195
0 195 44 0 45 0 51 -132z m976 107 c11 -43 -34 -73 -64 -43 -27 27 -6 68 35
68 16 0 24 -7 29 -25z m-2549 -117 l33 -32 0 -108 0 -108 -35 0 -35 0 0 55 0
55 -65 0 -65 0 0 -30 c0 -30 1 -30 55 -30 52 0 55 -1 55 -25 0 -24 -3 -25 -62
-25 -54 0 -66 4 -90 27 -35 33 -36 69 -3 106 22 25 30 27 100 27 l75 0 0 30 0
30 -95 0 c-99 0 -105 3 -89 44 5 13 23 16 97 16 89 0 92 -1 124 -32z m240 10
l23 -21 23 21 c35 33 96 30 130 -6 26 -27 27 -32 27 -140 l0 -112 -30 0 -30 0
0 110 0 110 -45 0 -45 0 0 -110 0 -110 -30 0 -30 0 0 110 0 110 -45 0 -45 0 0
-110 0 -110 -30 0 -30 0 0 112 c0 108 1 113 27 140 34 36 95 39 130 6z m500
-10 c32 -31 33 -35 33 -108 0 -70 -2 -78 -28 -103 -15 -15 -31 -27 -35 -27 -4
0 -7 47 -7 105 l0 105 -75 0 -75 0 0 -85 0 -85 65 0 c63 0 65 -1 65 -25 0 -24
-2 -25 -65 -25 l-65 0 0 -55 c0 -54 0 -55 -30 -55 l-30 0 0 167 0 167 27 28
c25 26 32 28 107 28 77 0 82 -1 113 -32z m135 -80 l3 -113 58 -3 c53 -3 57 -5
57 -27 0 -24 -3 -25 -62 -25 -54 0 -66 4 -90 27 -27 26 -28 29 -28 140 l0 113
30 0 29 0 3 -112z m198 -28 l0 -140 -30 0 -30 0 0 140 0 140 30 0 30 0 0 -140z
m282 113 c37 -35 36 -53 -2 -53 -16 0 -30 5 -30 10 0 6 -32 10 -75 10 l-75 0
0 -30 0 -30 77 0 c70 0 79 -2 105 -27 37 -35 36 -71 -2 -108 l-30 -29 0 57 0
57 -77 0 c-73 0 -79 2 -110 32 -41 40 -42 63 -1 105 31 32 35 33 112 33 73 0
82 -2 108 -27z m750 0 c26 -25 28 -32 28 -113 0 -83 -1 -87 -30 -115 l-30 -29
0 112 0 112 -65 0 -65 0 0 -85 0 -85 55 0 c52 0 55 -1 55 -25 0 -24 -3 -25
-62 -25 -54 0 -66 4 -90 27 -26 25 -28 32 -28 107 0 77 1 82 32 113 30 31 36
33 102 33 62 0 73 -3 98 -27z m146 -25 c11 -29 27 -77 36 -105 10 -29 21 -53
24 -53 4 0 25 46 47 103 37 92 43 102 68 105 l27 3 -18 -48 c-11 -26 -36 -90
-57 -140 l-37 -93 -38 0 -37 0 -47 134 c-25 73 -46 136 -46 140 0 3 13 6 29 6
26 0 32 -6 49 -52z m292 -88 l0 -140 -30 0 -30 0 0 140 0 140 30 0 30 0 0
-140z m298 110 c28 -38 28 -87 0 -117 -12 -13 -25 -23 -30 -23 -4 0 -8 25 -8
55 l0 55 -75 0 -75 0 0 -30 0 -30 65 0 c63 0 65 -1 65 -25 0 -24 -2 -25 -65
-25 l-65 0 0 -30 0 -30 101 0 c88 0 100 -2 95 -16 -3 -9 -6 -20 -6 -25 0 -5
-44 -9 -97 -9 -92 0 -98 1 -125 27 -26 25 -28 32 -28 112 0 83 1 85 33 112 29
26 39 28 113 29 78 0 81 -1 102 -30z m309 -2 c18 -18 33 -36 33 -40 0 -4 -16
-8 -35 -8 -19 0 -35 5 -35 10 0 6 -32 10 -76 10 l-75 0 3 -27 c3 -28 4 -28 83
-31 71 -3 83 -6 107 -29 36 -35 36 -71 0 -106 -15 -15 -31 -27 -35 -27 -4 0
-7 25 -7 55 l0 55 -77 0 c-70 0 -79 2 -105 27 -37 35 -37 77 -1 115 25 26 32
28 107 28 77 0 82 -1 113 -32z m-1977 -183 c0 -12 14 -15 65 -15 63 0 65 -1
65 -25 0 -24 -2 -25 -73 -25 -67 0 -75 2 -100 28 -36 38 -34 52 8 52 24 0 35
-5 35 -15z m1794 0 c4 -11 21 -15 66 -15 57 0 60 -1 60 -25 0 -24 -2 -25 -68
-25 -62 0 -71 3 -95 28 -15 15 -27 33 -27 40 0 18 57 15 64 -3z m-544 -380 l0
-75 -1120 0 -1120 0 0 75 0 75 1120 0 1120 0 0 -75z m760 -205 l0 -40 -1880 0
-1880 0 0 40 0 40 1880 0 1880 0 0 -40z"/>
<path d="M972 428 c-27 -27 -1 -78 39 -78 26 0 24 16 -3 25 l-23 8 23 4 c12 2
22 8 22 13 0 5 -10 11 -22 13 l-23 4 23 2 c12 0 22 6 22 11 0 14 -43 13 -58
-2z"/>
<path d="M1050 395 c0 -25 5 -45 10 -45 6 0 10 12 10 28 l1 27 15 -27 c23 -44
44 -36 44 17 0 47 -12 58 -29 28 -9 -17 -10 -17 -16 0 -14 35 -35 19 -35 -28z"/>
<path d="M1180 409 c0 -22 -5 -32 -20 -36 -23 -6 -27 -23 -6 -23 35 0 46 13
46 51 0 21 -4 39 -10 39 -5 0 -10 -14 -10 -31z"/>
<path d="M1224 426 c-17 -44 20 -91 54 -70 21 14 28 64 10 75 -21 14 -58 10
-64 -5z m51 -31 c0 -28 -29 -25 -33 3 -3 19 0 23 15 20 10 -2 18 -12 18 -23z"/>
<path d="M1324 415 c9 -13 16 -33 16 -45 0 -11 5 -20 10 -20 6 0 10 8 10 18 0
10 7 28 16 40 19 28 11 41 -12 21 -13 -11 -18 -11 -21 -1 -3 6 -12 12 -20 12
-14 0 -13 -3 1 -25z"/>
<path d="M1484 415 c9 -13 16 -33 16 -45 0 -11 5 -20 10 -20 6 0 10 8 10 18 0
10 7 28 16 40 19 28 11 41 -12 21 -13 -11 -18 -11 -21 -1 -3 6 -12 12 -20 12
-14 0 -13 -3 1 -25z"/>
<path d="M1570 425 c-17 -20 -5 -62 20 -70 44 -14 80 41 48 73 -17 17 -53 15
-68 -3z m50 -30 c0 -16 -6 -25 -15 -25 -9 0 -15 9 -15 25 0 16 6 25 15 25 9 0
15 -9 15 -25z"/>
<path d="M1660 406 c0 -29 5 -39 25 -48 33 -15 55 4 55 48 0 43 -18 45 -22 2
-4 -43 -26 -48 -30 -7 -4 47 -28 50 -28 5z"/>
<path d="M1760 396 c0 -25 5 -46 10 -46 6 0 10 7 10 15 0 8 6 15 14 15 8 0 16
-7 20 -15 11 -30 24 -14 23 28 -2 41 -3 42 -39 45 l-38 3 0 -45z m47 18 c-3
-3 -12 -4 -19 -1 -8 3 -5 6 6 6 11 1 17 -2 13 -5z"/>
<path d="M1854 425 c-8 -21 4 -35 32 -35 13 0 24 -4 24 -10 0 -5 -14 -10 -32
-10 -23 0 -29 -3 -21 -11 6 -6 23 -9 39 -7 23 2 29 8 29 28 0 17 -7 26 -25 31
l-25 7 28 1 c40 1 33 21 -8 21 -22 0 -38 -6 -41 -15z"/>
<path d="M1951 418 c-4 -12 -6 -30 -3 -40 5 -22 49 -35 65 -19 8 8 5 11 -10
11 -12 0 -25 5 -28 10 -4 6 5 10 20 10 31 0 24 19 -8 21 -20 1 -20 2 -2 6 36
9 40 23 7 23 -25 0 -35 -6 -41 -22z"/>
<path d="M2030 407 c0 -18 5 -38 12 -45 15 -15 48 -16 48 -2 0 6 -7 10 -15 10
-10 0 -15 11 -15 35 0 24 -5 35 -15 35 -10 0 -15 -10 -15 -33z"/>
<path d="M2117 433 c-11 -10 -8 -83 3 -83 6 0 10 9 10 20 0 15 7 20 25 20 34
0 32 18 -2 23 l-28 4 28 2 c15 0 27 6 27 11 0 11 -53 14 -63 3z"/>
<path d="M2264 426 c-9 -23 0 -69 14 -74 8 -2 12 10 12 42 0 44 -15 62 -26 32z"/>
<path d="M2310 395 c0 -45 20 -66 21 -22 l0 22 16 -22 c23 -34 33 -28 33 22 0
45 -19 66 -21 23 l0 -23 -11 23 c-19 38 -38 27 -38 -23z"/>
<path d="M2482 428 c-29 -29 -7 -78 35 -78 13 0 23 5 23 10 0 6 -9 10 -19 10
-20 0 -31 17 -24 38 3 6 13 12 24 12 10 0 19 5 19 10 0 14 -43 13 -58 -2z"/>
<path d="M2566 399 c-19 -47 -16 -56 12 -38 17 10 23 10 36 -1 9 -7 19 -11 22
-8 9 9 -28 88 -41 88 -7 0 -20 -19 -29 -41z"/>
<path d="M2657 433 c-9 -8 -9 -68 0 -76 3 -4 12 -2 20 4 9 9 13 8 13 0 0 -20
20 -12 30 12 l9 22 0 -22 c2 -44 21 -23 21 22 0 51 -25 64 -36 20 -7 -28 -24
-24 -24 6 0 18 -20 26 -33 12z"/>
<path d="M2770 396 c0 -45 12 -59 27 -32 4 8 17 15 28 18 14 2 20 11 20 28 0
22 -5 25 -37 28 l-38 3 0 -45z m50 14 c0 -5 -4 -10 -10 -10 -5 0 -10 5 -10 10
0 6 5 10 10 10 6 0 10 -4 10 -10z"/>
<path d="M2867 433 c-15 -15 -6 -63 13 -73 37 -20 60 -4 60 41 0 47 -17 53
-22 7 -4 -46 -28 -49 -28 -4 0 34 -8 44 -23 29z"/>
<path d="M2960 415 c0 -20 5 -25 25 -25 14 0 25 -4 25 -10 0 -5 -11 -10 -25
-10 -14 0 -25 -4 -25 -10 0 -16 56 -12 70 5 15 19 -1 42 -33 48 -18 4 -18 5 5
6 45 2 43 21 -1 21 -37 0 -41 -2 -41 -25z"/>
</g>
</svg>
